<?xml version="1.0" encoding="utf-8"?>
<!-- Generator: Adobe Illustrator 22.0.1, SVG Export Plug-In . SVG Version: 6.00 Build 0)  -->
<svg version="1.1" xmlns="http://www.w3.org/2000/svg" xmlns:xlink="http://www.w3.org/1999/xlink" x="0px" y="0px"
	 viewBox="0 0 56 56" style="enable-background:new 0 0 56 56;" xml:space="preserve">
<style type="text/css">
	.st0{fill:#3D9ACD;}
	.st1{fill:#FFFFFF;}
	.st2{fill:#1D92CD;}
	.st3{fill:#F06116;}
	.st4{fill:#6DCFF6;}
	.st5{fill:#46C8F5;}
	.st6{fill:#00B9F2;}
	.st7{fill:#00B3F0;}
	.st8{fill:#00C0F3;}
</style>
<g id="Layer_1">
	<circle class="st5" cx="28" cy="28" r="28"/>
	<g>
		<path class="st1" d="M15.5,27.1c-0.6,0-1.1,0-1.6,0c0-2.6,0-5.2,0-7.7c2,0,4,0,6.1,0c-0.1-0.2-0.2-0.3-0.3-0.5
			c-1.3-2.1,0.1-4.9,2.6-4.9c0.6,0,1.3,0.3,1.9,0.6c1.5,0.7,2.8,1.7,3.8,3.1c0.8-1.1,1.8-1.9,2.9-2.6c0.6-0.4,1.1-0.7,1.8-0.9
			c1.2-0.5,2.2-0.2,3.1,0.7c1,0.9,1.2,2.1,0.8,3.4c-0.1,0.4-0.4,0.8-0.6,1.2c1,0,2,0,3,0c1,0,2,0,3.1,0c0,2.6,0,5.1,0,7.7
			c-0.5,0-1,0-1.6,0c0,5,0,10,0,15c-8.3,0-16.6,0-24.9,0C15.5,37.1,15.5,32.1,15.5,27.1z M24.4,40.9c0-4.6,0-9.2,0-13.8
			c-2.5,0-5.1,0-7.6,0c0,4.6,0,9.2,0,13.8C19.3,40.9,21.8,40.9,24.4,40.9z M39.2,40.9c0-4.6,0-9.2,0-13.8c-2.5,0-5.1,0-7.6,0
			c0,4.6,0,9.2,0,13.8C34.2,40.9,36.7,40.9,39.2,40.9z M30.4,40.9c0-6.8,0-13.6,0-20.3c-1.6,0-3.2,0-4.8,0c0,6.8,0,13.6,0,20.3
			C27.2,40.9,28.8,40.9,30.4,40.9z M24.4,20.6c-3.1,0-6.2,0-9.3,0c0,1.8,0,3.6,0,5.4c3.1,0,6.2,0,9.3,0
			C24.4,24.1,24.4,22.4,24.4,20.6z M31.6,25.9c3.1,0,6.2,0,9.3,0c0-1.8,0-3.6,0-5.4c-3.1,0-6.2,0-9.3,0
			C31.6,22.4,31.6,24.1,31.6,25.9z M31.5,19.3c0.7,0,1.4,0,2,0c0.8,0,1.3-0.3,1.7-0.9c0.5-0.8,0.4-1.9-0.2-2.6
			c-0.6-0.7-1.5-0.9-2.3-0.4c-0.4,0.2-0.8,0.4-1.1,0.6c-1,0.7-2,1.5-2.7,2.5c-0.4,0.5-0.2,0.8,0.4,0.8C30,19.3,30.8,19.3,31.5,19.3z
			 M24.5,19.3c0.7,0,1.3,0,2,0c0.3,0,0.6-0.1,0.8-0.2c-0.1-0.3-0.2-0.6-0.4-0.8c-1.1-1.3-2.4-2.3-3.9-3c-0.6-0.3-1.2-0.1-1.8,0.3
			c-0.7,0.6-1,1.5-0.7,2.4c0.3,0.9,1,1.3,2,1.3C23.2,19.3,23.8,19.3,24.5,19.3z"/>
	</g>
</g>
<g id="Download">
</g>
</svg>
