<?xml version="1.0" encoding="utf-8"?>
<!-- Generator: Adobe Illustrator 22.0.1, SVG Export Plug-In . SVG Version: 6.00 Build 0)  -->
<svg version="1.1" xmlns="http://www.w3.org/2000/svg" xmlns:xlink="http://www.w3.org/1999/xlink" x="0px" y="0px"
	 viewBox="0 0 56 56" style="enable-background:new 0 0 56 56;" xml:space="preserve">
<style type="text/css">
	.st0{fill:#3D9ACD;}
	.st1{fill:#FFFFFF;}
	.st2{fill:#1D92CD;}
	.st3{fill:#F06116;}
	.st4{fill:#6DCFF6;}
	.st5{fill:#46C8F5;}
	.st6{fill:#00B9F2;}
	.st7{fill:#00B3F0;}
	.st8{fill:#00C0F3;}
</style>
<g id="Layer_1">
	<circle class="st4" cx="28" cy="28" r="28"/>
	<g>
		<path class="st1" d="M17.4,43.7c0-0.3,0-0.5,0-0.7c0-5,0-10,0-15c0-0.2,0-0.3,0-0.5c0-0.5,0.2-0.8,0.7-0.8c0.5,0,0.6,0.3,0.6,0.7
			c0,0.1,0,0.3,0,0.4c0,5,0,10.1,0,15.1c0,0.2,0,0.4,0,0.7c0.6,0,1.1,0,1.6,0c0-0.2,0-0.4,0-0.6c0-2,0-4.1,0-6.1c0-0.2,0-0.3,0-0.5
			c0-0.4,0.2-0.7,0.7-0.7c0.5,0,0.7,0.3,0.7,0.7c0,1.3,0,2.7,0,4c0,1,0,2.1,0,3.2c0.6,0,1.2,0,1.8,0c0-2.9,0-5.8,0-8.7
			c-0.1,0-0.3-0.1-0.4-0.1c-1.8-0.4-3-1.7-3-3.4c-0.1-2.3,0-4.6,0-6.8c0-0.9,0.3-1.7,0.4-2.6c-0.9,0-1.8,0.4-2.6,0.9
			c-1.5,1.1-2.3,2.6-2.3,4.5c0,1.1,0,2.2,0,3.4c0,0.6-0.2,0.9-0.7,0.9c-0.4,0-0.6-0.3-0.6-0.9c0-1.5-0.1-3,0.1-4.5
			c0.3-2.4,1.7-4,3.8-5c0.1,0,0.2-0.1,0.3-0.2c-0.2-0.2-0.3-0.4-0.5-0.6c-0.9-1.3-0.9-3.1,0.1-4.3c1-1.2,2.8-1.7,4.2-1
			c0.2,0.1,0.5,0.4,0.6,0.7c0.1,0.5-0.4,0.8-1,0.6c-0.7-0.3-1.4-0.4-2.1,0C19,17,18.5,18,18.9,19c0.3,1,1.3,1.6,2.4,1.5
			c0.1,0,0.2-0.1,0.3-0.1c0.5-0.5,1-1,1.5-1.5c0.5-0.4,1.2-0.7,1.8-1.1c-1-1-1.5-2.1-1.3-3.6c0.1-1,0.6-1.8,1.4-2.4
			c1.6-1.3,3.8-1.2,5.2,0.2c1.3,1.3,1.8,3.7-0.1,5.7c0.1,0.1,0.2,0.1,0.3,0.2c1.3,0.5,2.4,1.2,3.2,2.3c0.2,0.3,0.5,0.4,0.8,0.3
			c1.3-0.2,2.1-1.5,1.8-2.7c-0.3-1.2-1.6-1.9-2.8-1.5c-0.1,0-0.2,0.1-0.3,0.1c-0.4,0.2-0.7,0-0.9-0.4c-0.2-0.4,0-0.7,0.4-0.9
			c2.2-1.1,5,0.5,5.1,3c0,1.1-0.4,1.9-1.1,2.7c1.5,0.5,2.6,1.4,3.5,2.7c0.7,1.1,1.1,2.3,1.1,3.6c0,1.2,0,2.3,0,3.5
			c0,0.6-0.2,0.9-0.6,0.9c-0.4,0-0.7-0.3-0.7-0.9c0-1.3,0-2.6,0-3.9c-0.1-2.4-2.1-4.6-4.8-4.9c-0.1,0-0.1,0-0.2,0
			c0.6,1.3,0.6,2.7,0.6,4c0,1.6,0,3.3,0,4.9c0,2.2-1,3.5-3.2,4c-0.1,0-0.1,0-0.2,0.1c0,2.9,0,5.8,0,8.7c0.5,0,1,0,1.6,0
			c0-0.2,0-0.4,0-0.6c0-2.2,0-4.3,0-6.5c0-0.5,0.2-0.8,0.7-0.8c0.4,0,0.6,0.3,0.7,0.8c0,0.1,0,0.2,0,0.4c0,2,0,4.1,0,6.1
			c0,0.2,0,0.4,0,0.6c0.7,0,1.3,0,1.9,0c0-0.2,0-0.4,0-0.6c0-5.1,0-10.2,0-15.3c0-0.8,0.2-1.1,0.7-1.1c0.5,0,0.7,0.3,0.7,1.1
			c0,5.1,0,10.1,0,15.2c0,0.2,0,0.4,0,0.7c0.2,0,0.4,0,0.6,0c1.6,0,3.1,0,4.7,0c0.2,0,0.4,0,0.6,0.1c0.2,0.1,0.5,0.4,0.5,0.6
			c0,0.2-0.3,0.5-0.5,0.7c-0.1,0.1-0.3,0-0.5,0c-10.4,0-20.8,0-31.2,0c-0.1,0-0.3,0-0.4,0c-0.2-0.2-0.5-0.4-0.5-0.7
			c0-0.2,0.3-0.4,0.5-0.6c0.1-0.1,0.4-0.1,0.6-0.1c1.4,0,2.8,0,4.2,0C16.9,43.7,17.1,43.7,17.4,43.7z M31.9,33.5
			c1.2-0.2,2-1.1,2-2.3c0-2,0-4.1,0-6.1c0-4-3.2-6.8-7.2-6.3c-2.7,0.3-5.1,2.4-5.3,5.1c-0.2,2.6-0.1,5.1-0.1,7.7c0,1,1,1.8,2.1,1.9
			c0-0.2,0-0.4,0-0.6c0-2.5,0-5,0-7.5c0-0.2,0-0.3,0-0.5c0.1-0.4,0.3-0.6,0.6-0.6c0.4,0,0.6,0.2,0.7,0.6c0,0.2,0,0.4,0,0.6
			c0,5.8,0,11.6,0,17.4c0,0.2,0,0.4,0,0.7c0.7,0,1.4,0,2,0c0-0.2,0-0.4,0-0.6c0-2.7,0-5.5,0-8.2c0-0.2-0.1-0.4,0-0.5
			c0.1-0.2,0.4-0.5,0.6-0.5c0.2,0,0.5,0.3,0.7,0.5c0.1,0.1,0,0.3,0,0.5c0,2.8,0,5.5,0,8.3c0,0.2,0,0.4,0,0.6c0.8,0,1.6,0,2.4,0
			c0-0.3,0-0.5,0-0.7c0-5.8,0-11.6,0-17.4c0-0.8,0.2-1.2,0.7-1.1c0.5,0,0.7,0.3,0.7,1.1C31.9,28.2,31.9,30.8,31.9,33.5z M30,14.9
			c0-1.4-1.1-2.6-2.5-2.6c-1.4,0-2.6,1.1-2.6,2.5c0,1.5,1.1,2.6,2.7,2.6C28.9,17.4,30,16.2,30,14.9z"/>
		<path class="st1" d="M41,33.5c0,0.4-0.3,0.7-0.7,0.6c-0.4,0-0.6-0.3-0.6-0.7c0-0.4,0.3-0.7,0.7-0.6C40.8,32.8,41,33.1,41,33.5z"/>
		<path class="st1" d="M15.6,33.5c0,0.3-0.2,0.5-0.6,0.6c-0.4,0-0.7-0.3-0.7-0.7c0-0.4,0.3-0.7,0.7-0.7
			C15.4,32.8,15.6,33.1,15.6,33.5z"/>
	</g>
</g>
<g id="Download">
</g>
</svg>
