<?xml version="1.0" encoding="utf-8"?>
<!-- Generator: Adobe Illustrator 22.0.1, SVG Export Plug-In . SVG Version: 6.00 Build 0)  -->
<svg version="1.1" xmlns="http://www.w3.org/2000/svg" xmlns:xlink="http://www.w3.org/1999/xlink" x="0px" y="0px"
	 viewBox="0 0 56 56" style="enable-background:new 0 0 56 56;" xml:space="preserve">
<style type="text/css">
	.st0{fill:#3D9ACD;}
	.st1{fill:#FFFFFF;}
	.st2{fill:#1D92CD;}
	.st3{fill:#F06116;}
	.st4{fill:#6DCFF6;}
	.st5{fill:#46C8F5;}
	.st6{fill:#00B9F2;}
	.st7{fill:#00B3F0;}
	.st8{fill:#00C0F3;}
</style>
<g id="Layer_1">
	<circle class="st8" cx="28" cy="28" r="28"/>
	<g>
		<path class="st1" d="M28,40.6c-4.4,0-8.8,0-13.3,0c-2.4,0-4-2.1-3.4-4.5c0.2-0.9,0.7-1.6,1.6-2.1c4-2.4,8.1-4.9,12.1-7.3
			c0.6-0.4,1.2-0.7,1.8-1.1c0.1-0.1,0.2-0.2,0.2-0.3c0-0.8,0-1.6,0-2.4c0-0.8,0.4-1.2,1.2-1.2c1.1-0.1,1.9-0.9,1.9-2
			c0-1.1-0.9-1.9-1.9-1.9c-1.1,0-1.9,0.8-2,1.9c0,0.4-0.1,0.8-0.5,1c-0.4,0.2-0.8,0.3-1.2,0.1c-0.4-0.2-0.6-0.6-0.6-1
			c0-1.9,1.3-3.5,3-4c1.9-0.5,3.7,0.3,4.7,1.9c1.3,2.3,0.2,5.2-2.2,6c-0.2,0.1-0.3,0.2-0.3,0.4c0,0.5,0,0.9,0,1.4
			c0,0.1,0.1,0.3,0.2,0.3c1.2,0.7,2.4,1.4,3.6,2.1c2.9,1.7,5.8,3.5,8.7,5.3c0.7,0.4,1.4,0.8,2,1.2c0.2,0.1,0.4,0.3,0.5,0.5
			c1.4,1.9,0.6,4.7-1.6,5.5c-0.4,0.2-0.9,0.2-1.4,0.2C36.8,40.6,32.4,40.6,28,40.6z M28,38c1.8,0,3.6,0,5.4,0c2.6,0,5.2,0,7.7,0
			c0.7,0,1.1-0.3,1.3-0.8c0.2-0.6-0.1-1.1-0.7-1.5c-1.5-0.9-3-1.8-4.5-2.6c-2.6-1.5-5.3-3.1-7.9-4.6c-0.7-0.4-1.4-0.5-2.1-0.2
			c-0.3,0.1-0.6,0.3-0.9,0.5c-4,2.3-8,4.7-12,7.1c-0.5,0.3-0.8,0.9-0.6,1.5c0.1,0.5,0.5,0.7,1.2,0.7c0.1,0,0.3,0,0.4,0
			C19.4,38,23.7,38,28,38z"/>
	</g>
</g>
<g id="Download">
</g>
</svg>
