<?xml version="1.0" encoding="utf-8"?>
<!-- Generator: Adobe Illustrator 23.0.1, SVG Export Plug-In . SVG Version: 6.00 Build 0)  -->
<svg version="1.1" id="Layer_1" xmlns="http://www.w3.org/2000/svg" xmlns:xlink="http://www.w3.org/1999/xlink" x="0px" y="0px"
	 viewBox="0 0 14.3 10.4" style="enable-background:new 0 0 14.3 10.4;" xml:space="preserve">
<style type="text/css">
	.st0{fill:#3D9ACD;}
</style>
<title>Asset 1</title>
<g>
	<g id="Layer_1-2">
		<path class="st0" d="M0,3.1c0.4,0.2,0.7,0.5,1,0.7c1.6,0.9,3.1,1.9,4.6,2.8C6,6.7,6.3,6.9,6.6,7c0.3,0.2,0.7,0.2,1,0
			c0.9-0.4,1.8-0.9,2.6-1.4c1.3-0.8,2.5-1.6,3.8-2.4l0.2-0.1c0,0.1,0,0.1,0,0.2c0,2,0,4,0,5.9c0,0.6-0.4,1.1-1.1,1.1
			c-0.1,0-0.1,0-0.2,0H1.3C0.6,10.4,0,9.9,0,9.3c0,0,0,0,0,0c0-1.9,0-3.9,0-5.8V3.1z"/>
		<path class="st0" d="M7.2,0c1.9,0,3.9,0,5.7,0c1.1,0,1.5,0.6,1.4,1.5c0,0.1-0.1,0.1-0.1,0.1c-1.8,1.3-3.7,2.5-5.7,3.6
			c-0.3,0.1-0.6,0.3-1,0.4C7.3,5.7,7,5.7,6.8,5.6C6.2,5.4,5.7,5.1,5.1,4.8c-1.7-1.1-3.3-2.1-5-3.2C0.1,1.5,0,1.4,0,1.3
			c0-0.2,0-0.4,0-0.5C0.2,0.3,0.7,0,1.2,0H7.2z"/>
	</g>
</g>
</svg>
