<svg xmlns="http://www.w3.org/2000/svg" viewBox="0 0 16 15.49"><defs><style>.cls-1{fill:#3d9acd;}</style></defs><title>Asset 2</title><g id="Layer_2" data-name="Layer 2"><g id="Layer_1-2" data-name="Layer 1"><path class="cls-1" d="M14.4,5.88h.82a.71.71,0,0,1,.78.77v8.11c0,.47-.27.72-.78.72H3.12A3.38,3.38,0,0,1,1,14.87a2.38,2.38,0,0,1-1-2C0,10.62,0,8.36,0,6.1A2.66,2.66,0,0,1,2.25,3.49c.63-.12.63-.11.63-.75V.91c0-.64.27-.91.89-.91h6.49A1,1,0,0,1,11,.31c1,1,2,2.05,3.05,3.06a1,1,0,0,1,.34.81C14.39,4.73,14.4,5.28,14.4,5.88ZM1.4,9.45c0,1.1,0,2.21,0,3.31a1.13,1.13,0,0,0,.74,1.16,1.93,1.93,0,0,0,1.66,0,1.16,1.16,0,0,0,.75-1.16c0-2.24,0-4.47,0-6.71a1.09,1.09,0,0,0-.56-1,1.9,1.9,0,0,0-1.54-.21A1.2,1.2,0,0,0,1.4,6.23Zm8-3.58h2.66c.91,0,.9,0,.88-.91,0-.21-.07-.27-.27-.26H10.53a.73.73,0,0,1-.82-.83c0-.73,0-1.46,0-2.19,0-.2,0-.3-.28-.3-1.62,0-3.23,0-4.85,0-.24,0-.31.09-.3.32,0,.5,0,1,0,1.51a.59.59,0,0,0,.36.64,2.24,2.24,0,0,1,1.24,1.8c0,.21.15.22.31.22Zm3.09,2.41a.57.57,0,0,0,0,1.13.55.55,0,0,0,.56-.55A.57.57,0,0,0,12.54,8.28ZM12,12.48a.55.55,0,0,0,.54.58.56.56,0,0,0,0-1.12A.53.53,0,0,0,12,12.48ZM10.37,9.41a.57.57,0,0,0,.57-.53.58.58,0,0,0-.54-.6.54.54,0,0,0-.55.54A.55.55,0,0,0,10.37,9.41ZM12,10.66a.53.53,0,0,0,.55.56.55.55,0,0,0,0-1.1A.52.52,0,0,0,12,10.66ZM8.8,8.84a.58.58,0,0,0-.57-.56.59.59,0,0,0-.54.56.56.56,0,1,0,1.11,0Zm1.59,4.22a.56.56,0,0,0,0-1.12.54.54,0,0,0-.54.54A.55.55,0,0,0,10.39,13.06ZM8.24,11.94a.56.56,0,1,0,.56.57A.58.58,0,0,0,8.24,11.94Zm.57-1.27a.57.57,0,0,0-.58-.55.55.55,0,0,0-.54.55.55.55,0,0,0,.54.55A.57.57,0,0,0,8.81,10.67Zm1.59.55a.55.55,0,1,0,0-1.1.51.51,0,0,0-.51.56A.53.53,0,0,0,10.4,11.22Z"/></g></g></svg>