<?xml version="1.0" encoding="UTF-8" standalone="no"?>
<svg
   xmlns:dc="http://purl.org/dc/elements/1.1/"
   xmlns:cc="http://creativecommons.org/ns#"
   xmlns:rdf="http://www.w3.org/1999/02/22-rdf-syntax-ns#"
   xmlns:svg="http://www.w3.org/2000/svg"
   xmlns="http://www.w3.org/2000/svg"
   viewBox="0 0 1000.7867 205.32001"
   height="205.32001"
   width="1000.7867"
   xml:space="preserve"
   id="svg2"
   version="1.1"><metadata
     id="metadata8"><rdf:RDF><cc:Work
         rdf:about=""><dc:format>image/svg+xml</dc:format><dc:type
           rdf:resource="http://purl.org/dc/dcmitype/StillImage" /></cc:Work></rdf:RDF></metadata><defs
     id="defs6"><clipPath
       id="clipPath20"
       clipPathUnits="userSpaceOnUse"><path
         id="path18"
         d="M 0,1539.89 V 0 h 7505.9 v 1539.89 z" /></clipPath></defs><g
     transform="matrix(1.3333333,0,0,-1.3333333,0,205.32)"
     id="g10"><g
       transform="scale(0.1)"
       id="g12"><g
         id="g14"><g
           clip-path="url(#clipPath20)"
           id="g16"><path
             id="path22"
             style="fill:#4492d2;fill-opacity:1;fill-rule:nonzero;stroke:none"
             d="M 454.23,960.125 V 240.941 C 454.23,94.7188 366.043,0 181.367,0 121.469,0 58.2344,12 0,39.5586 L 73.2266,153.43 c 34.9184,-11.981 68.2034,-17.969 98.1484,-16.77 66.551,2.41 81.535,39.559 81.535,104.281 v 719.184 h 201.32" /><path
             id="path24"
             style="fill:#4492d2;fill-opacity:1;fill-rule:nonzero;stroke:none"
             d="m 1246.14,731.191 c -13.3,76.707 -96.5,115.067 -212.97,115.067 -109.826,0 -199.666,-38.36 -229.611,-115.067 z M 800.219,610.117 c 13.332,-73.129 101.511,-125.836 244.601,-125.836 74.85,0 173.03,20.36 219.62,55.117 l 129.78,-92.296 c -86.53,-64.711 -227.96,-95.891 -352.74,-95.891 -282.859,0 -450.894,125.871 -450.894,315.262 0,179.785 169.719,309.238 435.934,309.238 274.52,0 445.89,-122.273 414.29,-365.594 H 800.219" /><path
             id="path26"
             style="fill:#4492d2;fill-opacity:1;fill-rule:nonzero;stroke:none"
             d="M 1848.27,1124.34 V 956.531 h 226.27 V 830.672 h -227.95 v -255.32 c 0,-56.332 43.28,-83.903 106.49,-83.903 31.63,0 68.22,7.192 98.17,17.981 l 56.56,-124.66 c -58.22,-16.758 -106.49,-23.969 -168.04,-25.149 -178.03,-4.82 -294.5,68.301 -294.5,215.731 v 255.32 h -153.08 v 125.859 h 153.08 v 152.229 l 203,15.58" /><path
             id="path28"
             style="fill:#4492d2;fill-opacity:1;fill-rule:nonzero;stroke:none"
             d="M 7043.21,151.828 H 2153.07 V 1077.2 h 4890.14 c 254.48,0 462.69,-208.208 462.69,-462.688 v 0 c 0,-254.481 -208.21,-462.684 -462.69,-462.684" /><path
             id="path30"
             style="fill:#ef4f1c;fill-opacity:1;fill-rule:nonzero;stroke:none"
             d="m 616.973,1282.84 c 0,141.96 -115.09,257.05 -257.051,257.05 -141.969,0 -257.051,-115.09 -257.051,-257.05 0,-141.96 115.082,-257.05 257.051,-257.05 141.961,0 257.051,115.09 257.051,257.05" /><path
             id="path32"
             style="fill:#ffffff;fill-opacity:1;fill-rule:nonzero;stroke:none"
             d="m 2515.47,395.34 c 120.82,0 162.01,91.601 162.01,187.57 0,154.832 -100.23,185.352 -162.01,185.352 -63.13,0 -163.34,-30.52 -163.34,-185.352 0,-95.969 41.17,-187.57 163.34,-187.57 z m -166.1,463.418 -1.36,-66.492 h 4.12 c 80.98,79.597 172.96,87.226 225.12,87.226 196.33,0 317.12,-115.597 317.12,-298.769 0,-174.461 -122.17,-296.582 -321.24,-296.582 -27.43,0 -142.76,5.441 -211.41,77.41 v -258.43 h -208.65 v 755.637 h 196.3" /><path
             id="path34"
             style="fill:#ffffff;fill-opacity:1;fill-rule:nonzero;stroke:none"
             d="m 3240.41,798.789 c 87.86,81.785 207.29,80.703 236.14,80.703 113.94,0 230.62,-39.258 230.62,-226.797 V 304.84 h -208.66 v 320.59 c 0,51.238 -6.88,142.832 -118.06,142.832 -137.28,0 -140.04,-130.86 -140.04,-151.563 V 304.84 h -208.65 v 772.36 h 208.65 V 798.789" /><path
             id="path36"
             style="fill:#ffffff;fill-opacity:1;fill-rule:nonzero;stroke:none"
             d="m 4330.54,568.719 c -61.78,-22.891 -57.67,-17.442 -137.29,-29.438 -43.93,-5.453 -122.18,-17.441 -122.18,-79.601 0,-52.34 67.25,-64.34 107.06,-64.34 50.81,0 152.41,27.269 152.41,138.488 z M 3889.86,679.93 c 10.97,191.933 251.22,199.562 328.09,199.562 314.38,0 319.85,-142.863 319.85,-207.199 l -4.11,-252.953 c -1.36,-61.078 1.38,-97.051 41.19,-104.68 v -9.82 h -219.65 l -17.84,54.519 h -4.12 c -54.92,-55.589 -146.9,-75.218 -233.38,-75.218 -222.38,0 -242.99,113.39 -242.99,160.269 0,126.496 133.17,155.942 259.46,173.391 153.76,17.441 208.68,8.711 212.79,62.129 v 15.285 c -4.11,73.047 -89.24,73.047 -112.58,73.047 -38.44,0 -127.67,-6.555 -127.67,-88.332 h -199.04" /><path
             id="path38"
             style="fill:#ffffff;fill-opacity:1;fill-rule:nonzero;stroke:none"
             d="m 5188.61,768.262 c -9.61,1.082 -17.85,1.082 -27.46,1.082 h -27.46 c -119.41,0 -215.53,-42.528 -215.53,-237.696 V 304.84 h -208.65 v 553.918 h 208.65 v -90.496 c 54.92,90.496 153.75,111.23 245.73,111.23 h 24.72 v -111.23" /><path
             id="path40"
             style="fill:#ffffff;fill-opacity:1;fill-rule:nonzero;stroke:none"
             d="m 5486.58,858.758 v -80.684 c 76.87,87.239 155.11,101.418 214.15,101.418 131.79,0 182.57,-64.336 204.53,-111.23 91.98,107.937 192.19,111.23 238.88,111.23 225.15,0 237.5,-163.566 237.5,-237.715 V 304.84 h -208.68 v 326.039 c 0,57.781 -10.97,137.383 -104.33,137.383 -59.04,0 -127.67,-34.895 -127.67,-145.012 V 304.84 H 5732.3 v 326.039 c 0,82.859 -21.96,137.383 -105.7,137.383 -53.54,0 -126.32,-35.969 -126.32,-145.012 V 304.84 h -208.65 v 553.918 h 194.95" /><path
             id="path42"
             style="fill:#ffffff;fill-opacity:1;fill-rule:nonzero;stroke:none"
             d="m 7005.01,568.719 c -61.76,-22.891 -57.64,-17.442 -137.27,-29.438 -43.92,-5.453 -122.17,-17.441 -122.17,-79.601 0,-52.34 67.25,-64.34 107.07,-64.34 50.8,0 152.37,27.269 152.37,138.488 z M 6564.35,679.93 c 10.97,191.933 251.23,199.562 328.1,199.562 314.37,0 319.85,-142.863 319.85,-207.199 l -4.12,-252.953 c -1.36,-61.078 1.39,-97.051 41.19,-104.68 v -9.82 h -219.63 l -17.86,54.519 h -4.12 c -54.92,-55.589 -146.89,-75.218 -233.37,-75.218 -222.39,0 -242.99,113.39 -242.99,160.269 0,126.496 133.17,155.942 259.46,173.391 153.75,17.441 208.67,8.711 212.79,62.129 v 15.285 c -4.12,73.047 -89.24,73.047 -112.59,73.047 -38.42,0 -127.64,-6.555 -127.64,-88.332 h -199.07" /></g></g></g></g></svg>