<?xml version="1.0" encoding="utf-8"?>
<!-- Generator: Adobe Illustrator 23.0.1, SVG Export Plug-In . SVG Version: 6.00 Build 0)  -->
<svg version="1.1" id="Layer_1" xmlns="http://www.w3.org/2000/svg" xmlns:xlink="http://www.w3.org/1999/xlink" x="0px" y="0px"
	 viewBox="0 0 14.6 20.6" style="enable-background:new 0 0 14.6 20.6;" xml:space="preserve">
<style type="text/css">
	.st0{fill:#3D9ACD;}
</style>
<g>
	<g>
		<path class="st0" d="M7.3,20.6c-0.9-1.2-1.8-2.1-2.7-3.2c-1.5-2.2-2.9-4.4-3.9-6.8c-0.8-2-1-4.2-0.1-6.2C1.9,1.4,5-0.3,8.1,0
			c3,0.2,6,2.9,6.4,6.1c0.2,1.6,0,3.1-0.7,4.6c-1.3,3.1-3.1,6-5.3,8.6c-0.2,0.2-0.3,0.5-0.6,0.7C7.8,20.1,7.5,20.4,7.3,20.6z
			 M9.7,7.3c0-1.3-1.2-2.5-2.4-2.4C6,4.9,4.9,6.1,4.9,7.3S6,9.7,7.3,9.7C8.7,9.7,9.7,8.6,9.7,7.3z"/>
	</g>
</g>
<g id="Download">
</g>
</svg>
