<svg xmlns="http://www.w3.org/2000/svg" viewBox="0 0 16 17.16"><defs><style>.cls-1{fill:#3d9acd;}</style></defs><title>Asset 1</title><g id="Layer_2" data-name="Layer 2"><g id="Layer_1-2" data-name="Layer 1"><path class="cls-1" d="M11,17.16A7.19,7.19,0,0,1,7.11,15.8,18.38,18.38,0,0,1,.76,8.39,6.74,6.74,0,0,1,.15,3.93,5.07,5.07,0,0,1,1.9,1L2.69.36a1.08,1.08,0,0,1,1.62,0A11.28,11.28,0,0,1,5.68,2.21a6.1,6.1,0,0,1,.63,1.43A1.35,1.35,0,0,1,5.9,5.09,10,10,0,0,1,4.79,6a1.29,1.29,0,0,0-.55,1.6,7.87,7.87,0,0,0,.89,1.73,11.28,11.28,0,0,0,2.64,2.79,4.7,4.7,0,0,0,.85.47,1.32,1.32,0,0,0,1.56-.34l.92-.86A1.57,1.57,0,0,1,13,11.15a8.16,8.16,0,0,1,2.7,2.25,1.15,1.15,0,0,1-.21,1.76,15.64,15.64,0,0,1-1.33,1.11A5.26,5.26,0,0,1,11,17.16Z"/></g></g></svg>