<?xml version="1.0" encoding="utf-8"?>
<!-- Generator: Adobe Illustrator 22.0.1, SVG Export Plug-In . SVG Version: 6.00 Build 0)  -->
<svg version="1.1" xmlns="http://www.w3.org/2000/svg" xmlns:xlink="http://www.w3.org/1999/xlink" x="0px" y="0px"
	 viewBox="0 0 64 64" style="enable-background:new 0 0 64 64;" xml:space="preserve">
<style type="text/css">
	.st0{fill:#3D9ACD;}
	.st1{fill:#FFFFFF;}
	.st2{fill:#1D92CD;}
	.st3{fill:#F06116;}
	.st4{fill:#6DCFF6;}
	.st5{fill:#46C8F5;}
	.st6{fill:#00B9F2;}
	.st7{fill:#00B3F0;}
	.st8{fill:#00C0F3;}
</style>
<g id="Layer_1">
	<g>
		<path class="st0" d="M52.7,34.5c1.7,1.5,2.6,3.2,1.8,5.3c-0.7,2-2.2,2.8-4.2,2.9c-0.6,3.2-1.5,4.1-4.7,4.6
			c-0.2,2.8-1.6,4.3-4.5,4.6c-0.3,2.3-1.2,4-3.7,4.5c-2.4,0.4-3.8-1.2-5.5-2.9c-0.4,0.5-0.7,1-1.1,1.4c-1.3,1.4-2.8,1.9-4.7,1.3
			c-1.8-0.6-2.8-1.9-3-3.8c0-0.1,0-0.3-0.1-0.5c-2.8-0.2-4.4-1.7-4.6-4.6c-2.8-0.2-4.4-1.7-4.6-4.6c-2.3-0.2-4-1.2-4.5-3.6
			c-0.5-2.4,1.1-3.9,2.7-5.4c-1.1-1.3-1.7-2.8-1.6-4.5c0-0.3-0.3-0.6-0.5-0.8c-1.5-1.5-3-3-4.5-4.6c-1.6-1.6-1.6-3.5,0-5.1
			c2.9-2.9,5.7-5.7,8.6-8.6c1.7-1.7,3.6-1.7,5.3,0c1.4,1.3,2.7,2.7,4,4.1c0.4,0.4,0.8,0.5,1.4,0.3c2.4-0.9,4.8-0.9,7.1,0
			c0.3,0.1,0.7,0,1-0.1c2-1.4,4.2-1.8,6.6-1.3c0.3,0.1,0.8-0.1,1.1-0.4c1.4-1.4,2.8-2.8,4.2-4.2C46.5,7,48.2,7,50,8.8
			c2.8,2.8,5.7,5.7,8.5,8.6c1.7,1.7,1.7,3.5,0,5.2c-1.4,1.4-2.9,2.8-4.3,4.3c-0.2,0.2-0.5,0.6-0.4,0.9
			C54.6,30.2,54.1,32.4,52.7,34.5z M31.8,43.2c1.9-0.1,3.1,1,4.3,2.3c1.2,1.3,2.4,2.5,3.7,3.7c0.7,0.7,1.9,0.7,2.6,0.1
			c0.8-0.6,1.1-1.5,0.7-2.5c-0.2-0.4-0.5-0.8-0.9-1.2c-1.3-1.3-2.6-2.6-3.9-3.9c-0.5-0.5-0.9-1.1-0.2-1.7c0.6-0.6,1.2-0.4,1.8,0.2
			c1.3,1.4,2.7,2.7,4.1,4.1c1.1,1.1,2.4,1.2,3.3,0.3c1-1,0.9-2.3-0.2-3.4c-1.3-1.3-2.7-2.7-4-4c-0.6-0.6-1-1.2-0.3-1.9
			c0.7-0.7,1.3-0.2,1.9,0.3c1.4,1.4,2.7,2.7,4.1,4.1c1.1,1,2.3,1.1,3.2,0.2c0.9-0.9,0.9-2.2-0.1-3.3c-3.5-3.6-7.1-7.1-10.7-10.6
			c-2.2-2.2-5.4-2.1-7.6,0.1c-0.9,0.8-1.7,1.7-2.6,2.5c-1.7,1.5-4.1,1.4-5.8-0.2c-1.6-1.5-1.9-4-0.5-5.7c0.7-0.9,1.6-1.7,2.5-2.6
			c1.1-1.1,2.3-2.3,3.6-3.5c-2.2-0.7-4.1-0.6-5.9,0.4c-1,0.5-1.6,0.3-2.3-0.4c-1.6-1.7-3.2-3.2-4.8-4.8c-0.5-0.5-1.2-0.8-1.8-0.2
			c-3,3-6.1,6-9.1,9.1c-0.3,0.3-0.4,1-0.2,1.4c0.4,0.7,1,1.2,1.5,1.8c1.7-1.7,3.3-3.3,4.9-4.9c0.2-0.2,0.4-0.5,0.7-0.6
			c0.5-0.1,1.1-0.1,1.4,0.1c0.2,0.3,0.2,1,0,1.4c-0.3,0.6-0.9,1-1.4,1.4c-1.3,1.3-2.7,2.6-4.2,4c0.9,0.9,1.7,1.6,2.5,2.4
			c0.5,0.5,0.7,1,0.6,1.7c-0.2,1.1,0.1,2,0.9,2.9c1.4-1.6,2.9-3.2,5.3-2.7c2.4,0.5,3.6,2.1,3.7,4.5c2.8,0.3,4.4,1.8,4.6,4.6
			C30.3,39.1,31.5,40.3,31.8,43.2z M55.1,23c0.8-0.8,1.4-1.5,2.1-2.1c0.6-0.6,0.6-1.2,0-1.8c-3-3-5.9-5.9-8.9-8.9
			c-0.8-0.7-1.3-0.7-2,0.1c-1.7,1.7-3.3,3.3-5,5c-0.6,0.6-1.2,0.8-2,0.4c-2-0.8-4-0.5-5.6,1c-2.4,2.3-4.7,4.7-7.1,7.1
			c-0.9,1-0.9,2.2,0,3.1c0.8,0.9,2.1,0.8,3.1-0.1c0.8-0.7,1.5-1.5,2.3-2.3c3-2.9,7.7-2.9,10.7,0.1c2.5,2.5,5,5,7.6,7.5
			c0.2,0.2,0.5,0.5,0.8,0.7c1-1.5,1.2-3.2,0.5-4.9c-0.3-0.8-0.2-1.4,0.5-2c0.5-0.4,0.9-0.9,1.5-1.4c-0.9-0.8-1.6-1.5-2.3-2.2
			c-1.1-1-2.1-2.1-3.1-3.2c-0.5-0.5-0.6-1.1,0-1.6c0.5-0.4,1.1-0.4,1.6,0.1c0.2,0.2,0.4,0.4,0.6,0.6C51.9,19.9,53.5,21.4,55.1,23z
			 M18.4,45.1c0.2-0.1,0.6-0.1,0.9-0.4c1.8-1.7,3.5-3.4,5.2-5.2c0.7-0.8,0.5-2-0.2-2.8c-0.7-0.7-2-0.9-2.8-0.2c-1.7,1.6-3.4,3.3-5,5
			c-0.6,0.6-0.6,1.5-0.2,2.3C16.7,44.7,17.3,45.2,18.4,45.1z M18.4,31.4c-0.7,0.2-1.2,0.3-1.4,0.5c-1.8,1.7-3.6,3.4-5.2,5.3
			c-0.7,0.7-0.4,2,0.3,2.7c0.7,0.7,2,0.9,2.7,0.2c1.8-1.7,3.5-3.4,5.2-5.2c0.6-0.6,0.6-1.5,0.1-2.2C19.6,32.2,18.9,31.8,18.4,31.4z
			 M22.5,49.9c0.7-0.2,1.2-0.3,1.5-0.5c1.8-1.7,3.6-3.4,5.2-5.3c0.7-0.7,0.5-2-0.3-2.7c-0.7-0.7-2-0.9-2.7-0.2
			c-1.8,1.7-3.5,3.4-5.2,5.2c-0.6,0.6-0.6,1.5-0.1,2.2C21.3,49.2,22,49.5,22.5,49.9z M31.7,45.4c-0.2,0.1-0.7,0.1-1,0.4
			c-1.7,1.7-3.5,3.3-5.1,5.1c-0.8,0.8-0.5,2.1,0.3,2.9c0.7,0.7,2,0.8,2.7,0.1c1.7-1.6,3.4-3.3,5-5c0.6-0.7,0.6-1.5,0.2-2.3
			C33.5,45.8,32.8,45.4,31.7,45.4z M33.7,52.2c0.1,0.1,0.2,0.2,0.3,0.3c0.4,0.4,0.8,0.9,1.3,1.2c0.9,0.7,2.1,0.7,2.9,0
			c0.8-0.8,1-2,0.3-2.8c-0.6-0.8-1.4-1.4-2-2C35.5,50.1,34.6,51.1,33.7,52.2z"/>
		<path class="st0" d="M18.6,16.3c-0.4,0.3-0.8,0.7-1.2,0.8c-0.6,0.1-1.1-0.4-1-1c0-0.6,0.4-1.1,1.1-1c0.4,0.1,0.8,0.5,1.2,0.8
			C18.6,16,18.6,16.2,18.6,16.3z"/>
		<path class="st0" d="M45.6,16.6c-0.3-0.4-0.8-0.8-0.7-1.2c0-0.4,0.6-1,1-1.1c0.6-0.1,1.2,0.4,1.1,1.1c-0.1,0.4-0.6,0.8-0.9,1.2
			C45.9,16.6,45.7,16.6,45.6,16.6z"/>
	</g>
</g>
<g id="Download">
</g>
</svg>
