<?xml version="1.0" encoding="utf-8"?>
<!-- Generator: Adobe Illustrator 22.0.1, SVG Export Plug-In . SVG Version: 6.00 Build 0)  -->
<svg version="1.1" xmlns="http://www.w3.org/2000/svg" xmlns:xlink="http://www.w3.org/1999/xlink" x="0px" y="0px"
	 viewBox="0 0 64 64" style="enable-background:new 0 0 64 64;" xml:space="preserve">
<style type="text/css">
	.st0{fill:#3D9ACD;}
	.st1{fill:#FFFFFF;}
	.st2{fill:#1D92CD;}
	.st3{fill:#F06116;}
	.st4{fill:#6DCFF6;}
	.st5{fill:#46C8F5;}
	.st6{fill:#00B9F2;}
	.st7{fill:#00B3F0;}
	.st8{fill:#00C0F3;}
</style>
<g id="Layer_1">
	<g>
		<g>
			<path class="st0" d="M11,29.1c-0.6,1.1-1,2-1.4,2.9c-0.3,0.6-0.7,0.9-1.4,0.9c-1,0-2,0-3.1,0c0-0.6,0-1.2,0-1.9
				c0.8,0,1.6,0,2.3,0c0.5,0,0.8-0.2,1-0.6c0.6-1.3,1.3-2.7,2-3.9c0.2-0.3,0.7-0.8,1-0.7c0.4,0.1,0.8,0.5,0.9,0.9
				c0.7,2.2,1.2,4.4,1.9,6.8c0.5-0.9,1-1.7,1.6-2.8c-2-4.3-2.3-9.1-0.6-13.9c1.3-3.5,3.5-6.4,6.6-8.6c6.2-4.4,14.4-4.4,20.7,0
				c2.4,1.7,4.3,3.8,5.6,6.4c1.3,2.5,2,5.2,2.1,8.1c0.1,2.9-0.6,5.6-1.8,8.3c0.9,0.3,1.4,0,1.8-0.8c0.5-1.2,1.1-2.4,1.8-3.5
				c0.2-0.4,0.7-0.6,1.1-0.9c0.3,0.4,0.8,0.7,0.9,1.1c0.6,2,1.1,4.1,1.7,6.1c0,0.1,0.1,0.3,0.3,0.7c0.5-2,1.3-3.1,3.3-2.4
				c0,0.4,0,1,0,1.6c-1.3-0.3-1.4,0.7-1.7,1.5c-0.3,0.7-0.5,1.4-0.9,2c-0.2,0.4-0.7,0.6-1,0.9c-0.3-0.4-0.8-0.7-0.9-1.1
				c-0.6-2.1-1.2-4.3-1.8-6.4c0-0.2-0.1-0.4-0.3-0.7c-0.5,1-1,1.9-1.4,2.8c-0.3,0.6-0.8,0.9-1.4,0.9c-0.1,0-0.3,0-0.4,0
				c-1.8-0.4-2.8,0.6-3.7,2c-2,3-3.7,6-4,9.6c-0.1,1.2-0.7,2.3-1.8,3c0.6,1.4,0.6,2.6-0.6,3.7c-0.1,0.1-0.1,0.5,0,0.7
				c0.3,1,0,1.9-0.6,2.7c-0.2,0.3-0.3,0.7-0.2,1.1c0.3,1.7-0.7,3.3-2.4,3.3c-2.5,0.1-5.1,0.1-7.6,0c-1.8-0.1-2.8-1.6-2.5-3.3
				c0.1-0.3,0-0.8-0.2-1.1c-0.6-0.8-0.9-1.7-0.6-2.7c0.1-0.2,0-0.6-0.2-0.8c-0.8-0.9-1-1.9-0.6-3.1c0.1-0.2,0-0.5-0.1-0.6
				c-1.3-1-1.5-2.5-1.7-4c-0.5-4-2.9-7.1-5.1-10.2c-0.4-0.5-0.8-0.4-1,0.2c-0.4,1-0.8,2.1-1.3,3.1c-0.2,0.4-0.7,0.8-1,0.8
				c-0.3,0-0.8-0.5-0.9-0.9C12.3,34.1,11.7,31.7,11,29.1z M41.9,26.6c0,1.3,0,2.4,0,3.5c-0.1,1.5-1,2.5-2.5,2.7
				C39,32.9,38.6,33,38.1,33c-0.8,4.5-1.6,8.9-2.4,13.3c2.6,0.4,3.7-0.2,4-2.7c0.5-3.9,2.4-7.3,4.7-10.4c2.4-3.1,3.7-6.5,3.7-10.4
				c-0.1-8.2-6-15-14.2-16c-6.8-0.8-12.3,1.8-15.8,7.7c-3.6,5.8-3.2,11.8,0.5,17.6c1.2,1.9,2.6,3.7,3.6,5.6c0.7,1.3,1.1,2.7,1.5,4.1
				c0.3,0.9,0.4,1.8,0.6,2.7c0.3,1.1,1,1.7,2,1.7c0.6,0,1.1,0,1.8,0c-0.7-4.2-1.5-8.3-2.2-12.5c-0.1-0.8-0.3-1.1-1.2-1.1
				c-1.8,0-2.8-1.2-2.8-3c0-0.5,0-0.9,0-1.5c-0.8,0-1.6,0-2.3,0c-1.1,0-1.3-0.2-1.3-1.4c0-1.7,0-3.3,0-5c0-2.2,0.5-2.9,2.7-3.6
				c0-0.8,0-1.6,0-2.4c0.1-1.8,1.1-2.8,2.9-2.9c0.2,0,0.4,0,0.6,0c0.5-2.1,1.3-2.6,3.4-2.6c0.6,0,1.2,0,1.8,0c0.8,0,1.2,0.4,1.2,1.2
				c0,6.7,0,13.4,0,20.1c0,0.8-0.4,1.2-1.2,1.2c-0.7,0-1.4,0-2.2,0c0.8,4.6,1.6,9,2.4,13.4c1.4,0,2.6,0,3.9,0
				c0.8-4.5,1.6-8.9,2.4-13.4c-0.7,0-1.3,0-1.9,0c-1.3,0-1.6-0.2-1.6-1.6c0-5.8,0-11.7,0-17.5c0-0.8,0-1.6,0-2.4
				c0-0.7,0.3-1.1,1.1-1c0.6,0,1.2,0,1.7,0c2.3,0,2.9,0.4,3.6,2.6c3,0.3,3.6,1,3.6,4.1c0,0.4,0,0.9,0,1.3c1.9,0.5,2.6,1.3,2.7,3
				c0,1.3,0,2.7,0,4c0,0.8-0.4,1.2-1.3,1.2C43.5,26.6,42.8,26.6,41.9,26.6z M29.2,31.1c0-6.4,0-12.6,0-18.9c-0.4,0-0.6,0-0.9,0
				c-1.6,0-1.7,0.2-1.7,1.8c0,0.9,0,1.8,0,2.7c-0.7,0-1.2,0-1.8,0c0-0.6,0-1.2,0-1.7C23.2,14.8,23,15,23,16.4c0,0.7,0,1.5,0,2.2
				c0,1.4-0.2,1.6-1.6,1.6c-0.6,0-1.1,0.2-1.1,0.9c0,1.8,0,3.6,0,5.3c0.7,0,1.2,0,1.8,0c0-0.9,0-1.7,0-2.5c0-0.6,0.3-1,0.9-1.1
				c0.9,0,1.8,0,2.7,0c0,0.6,0,1.2,0,1.7c-0.6,0-1.2,0.1-1.8,0.1c0,1.8,0,3.5,0,5.3c0,0.3,0.5,0.9,0.9,0.9
				C26.2,31.1,27.7,31.1,29.2,31.1z M34.7,31.1c1.6,0,3,0,4.4,0c0.3,0,0.8-0.5,0.9-0.8c0.1-1.2,0-2.4,0-3.6c-0.6,0-1.1,0-1.7,0
				c-0.1,0.3-0.2,0.5-0.2,0.8c-0.6,0-1.1,0-1.6,0c-0.3-2.4-0.1-2.6,2.2-2.6c0.5,0,1,0,1.5,0c1.1,0,2.2,0,3.4,0c0-1.1,0-2.1,0-3
				c0-1.3-0.1-1.4-1.4-1.5c-0.9,0-1.3-0.4-1.3-1.3c0-1,0-2,0-3c0-0.8-0.4-1.2-1.2-1.2c-0.3,0-0.5,0-0.8,0c-1.5,0-1.6-0.1-1.7-1.5
				c0-0.6-0.2-1.1-0.9-1.1c-0.6,0-1.1,0-1.7,0c0,1.6,0,3,0,4.5c0.9,0,1.7-0.1,2.5,0c0.4,0,0.9,0.4,1,0.7c0.1,0.9,0,1.9,0,2.8
				c-0.7,0-1.2,0-1.7,0c0-0.6-0.1-1.1-0.1-1.6c-0.6,0-1.2,0-1.7,0C34.7,22.7,34.7,26.8,34.7,31.1z M32,50c1.7,0,3.4,0,5.1,0
				c0.6,0,1.2-0.1,1.2-0.9c0-0.8-0.6-0.9-1.2-0.9c-3.4,0-6.7,0-10.1,0c-0.6,0-1.2,0.1-1.2,0.9c0,0.9,0.6,0.9,1.3,0.9
				C28.7,50,30.3,50,32,50z M31.9,53.6c1.4,0,2.8,0,4.2,0c0.6,0,1.2-0.1,1.2-0.9c0-0.7-0.5-0.9-1.1-0.9c-2.8,0-5.6,0-8.5,0
				c-0.6,0-1.1,0.2-1.1,0.9c0,0.8,0.5,0.9,1.2,0.9C29.2,53.6,30.6,53.6,31.9,53.6z M32.1,55.5c-1.2,0-2.3,0-3.5,0
				c-0.6,0-1.1,0.2-1.1,0.9c0,0.6,0.5,0.9,1.1,0.9c2.3,0,4.5,0,6.8,0c0.6,0,1.1-0.2,1.1-0.9c0-0.6-0.5-0.8-1.1-0.8
				C34.3,55.5,33.2,55.5,32.1,55.5z"/>
		</g>
	</g>
</g>
<g id="Download">
</g>
</svg>
