<?xml version="1.0" encoding="utf-8"?>
<!-- Generator: Adobe Illustrator 22.0.1, SVG Export Plug-In . SVG Version: 6.00 Build 0)  -->
<svg version="1.1" xmlns="http://www.w3.org/2000/svg" xmlns:xlink="http://www.w3.org/1999/xlink" x="0px" y="0px"
	 viewBox="0 0 56 56" style="enable-background:new 0 0 56 56;" xml:space="preserve">
<style type="text/css">
	.st0{fill:#3D9ACD;}
	.st1{fill:#FFFFFF;}
	.st2{fill:#1D92CD;}
	.st3{fill:#F06116;}
	.st4{fill:#6DCFF6;}
	.st5{fill:#46C8F5;}
	.st6{fill:#00B9F2;}
	.st7{fill:#00B3F0;}
	.st8{fill:#00C0F3;}
</style>
<g id="Layer_1">
	<circle class="st6" cx="28" cy="28" r="28"/>
	<g>
		<path class="st1" d="M27.9,11.9c7.8,0.1,14.5,5.7,15.9,13.4c1.5,8.4-4.2,16.7-12.5,18.4c-3.6,0.7-7.1,0.3-10.5-1.4
			c-0.3-0.1-0.5-0.1-0.8,0c-1.9,1.3-4.1,1.8-6.4,1.6c-0.7-0.1-1.3-0.5-1.4-1.2c-0.2-0.7,0.1-1.3,0.8-1.7c1.1-0.6,1.8-1.5,2.4-2.5
			c0.2-0.3,0.1-0.5-0.1-0.7c-2.7-3.5-3.8-7.4-3.3-11.8c0.7-6.5,5.8-12.3,12.3-13.7C25.5,12.2,26.7,12.1,27.9,11.9z M15,42.2
			c0,0,0.1,0,0.2,0c1.7-0.1,3.1-0.7,4.5-1.7c0.4-0.3,0.8-0.4,1.3-0.1c0.2,0.1,0.4,0.2,0.6,0.3c4.4,2.2,8.9,2.2,13.2-0.1
			c4.6-2.5,7.1-6.5,7.4-11.7c0.4-5.6-2.8-11-7.8-13.5c-6-3-13.1-1.4-17.3,3.7c-4.3,5.2-4.2,12.9,0,18c0.6,0.7,0.7,1.3,0.2,2.1
			c-0.2,0.2-0.3,0.5-0.4,0.7C16.2,40.7,15.6,41.4,15,42.2z"/>
		<path class="st1" d="M33.8,29.2c-0.6,0-1.1-0.5-1.1-1.1c0-0.7,0.5-1.1,1.1-1.1c0.6,0,1.1,0.5,1.1,1.1
			C34.9,28.7,34.4,29.2,33.8,29.2z"/>
		<path class="st1" d="M23.3,28c0,0.6-0.5,1.1-1.1,1.1c-0.6,0-1.1-0.5-1.1-1.1c0-0.6,0.5-1.1,1.1-1.1C22.8,26.9,23.3,27.4,23.3,28z"
			/>
		<path class="st1" d="M29.1,28c0,0.6-0.5,1.1-1.1,1.1c-0.6,0-1.1-0.5-1.1-1.1c0-0.6,0.5-1.1,1.1-1.1C28.6,26.9,29.1,27.4,29.1,28z"
			/>
	</g>
</g>
<g id="Download">
</g>
</svg>
