<?xml version="1.0" encoding="utf-8"?>
<!-- Generator: Adobe Illustrator 22.0.1, SVG Export Plug-In . SVG Version: 6.00 Build 0)  -->
<svg version="1.1" xmlns="http://www.w3.org/2000/svg" xmlns:xlink="http://www.w3.org/1999/xlink" x="0px" y="0px"
	 viewBox="0 0 64 64" style="enable-background:new 0 0 64 64;" xml:space="preserve">
<style type="text/css">
	.st0{fill:#3D9ACD;}
	.st1{fill:#FFFFFF;}
	.st2{fill:#1D92CD;}
	.st3{fill:#F06116;}
	.st4{fill:#6DCFF6;}
	.st5{fill:#46C8F5;}
	.st6{fill:#00B9F2;}
	.st7{fill:#00B3F0;}
	.st8{fill:#00C0F3;}
</style>
<g id="Layer_1">
	<g>
		<path class="st0" d="M49.3,46.8c0-1,0-1.9,0-2.8c0-1.9,0-3.8,0-5.7c0-0.6,0.1-1.1,0.8-1.1c0.7,0,0.8,0.5,0.8,1.1
			c0,2.4,0,4.8,0,7.3c0,0.3,0,0.7,0,1.1c0.4,0,0.7,0.1,1,0.1c1.6,0,3.1,0,4.7,0c0.9,0,1.5,0.5,1.5,1.4c0,2.9,0,5.7,0,8.6
			c0,0.8-0.5,1.3-1.3,1.3c-0.3,0-0.7,0-1,0c-7.6,0-15.3,0.1-22.9,0c-1.6,0-3.2,0.1-4.8,0c-0.3,0-0.7,0-0.9-0.1
			c-0.2-0.2-0.5-0.5-0.5-0.8c0-0.3,0.3-0.5,0.6-0.7c0.1-0.1,0.4-0.1,0.6-0.1c2.3-0.1,2.3-0.1,2.3-2.4c0-5.1,0-10.1,0-15.2
			c0-1.2,0-1.2-1.3-1.2c-2.1,0-4.2,0-6.4,0c0,1.1,0,2.2,0,3.2c0,1.9,0,3.8,0,5.8c0,0.4-0.2,0.9-0.5,1.1c-0.3,0.1-0.8-0.1-1.1-0.3
			c-0.7-0.5-1.3-1-2-1.6c-0.6,0.5-1.2,1.1-1.9,1.5c-0.4,0.2-1,0.5-1.3,0.4c-0.3-0.2-0.5-0.8-0.5-1.3c0-2.5,0-5.1,0-7.6
			c0-0.3,0-0.7,0-1.1c-0.2,0-0.4-0.1-0.6-0.1c-2.1,0-4.2,0-6.2,0c-0.6,0-0.9,0.2-0.9,0.9c0,5.7,0,11.4,0,17c0,0.9,0.5,0.9,1.1,0.9
			c5.1,0,10.1,0,15.2,0c0.4,0,0.8,0,1.1,0.1c0.3,0.1,0.6,0.5,0.6,0.7c0,0.3-0.3,0.6-0.6,0.8c-0.2,0.1-0.5,0.1-0.8,0.1
			c-5.1,0-10.3,0-15.4,0c-2,0-2.7-0.7-2.7-2.7c0-5.5,0-11,0-16.6c0-0.6,0.2-1.1,0.3-1.7c0-0.1,0.1-0.3,0.1-0.4
			c-0.1-1-0.3-1.9-0.3-2.9c0-5.2,0-10.4,0-15.5c0-1.9,0.8-2.7,2.7-2.7c2.2,0,4.3,0,6.6,0c0-1.4,0-2.8,0-4.2c0-1.3,0-2.5,0-3.8
			c0-1.1,0.5-1.7,1.6-1.7c4.5,0,9.1,0,13.6,0c0.9,0,1.5,0.6,1.5,1.4c0,2.8,0,5.6,0,8.5c0,2.8,0,5.7,0,8.6c0.4,0,0.7,0,1.1,0
			c5.2,0,10.5,0,15.7,0c1.6,0,2.2,0.6,2.2,2.2c0,2.8,0,5.6,0,8.4c0,0.6,0,1.2-0.8,1.2c-0.8,0-0.8-0.6-0.8-1.2c0-2.9,0-5.8,0-8.8
			c-1.7,0-3.2,0-5,0c0,0.3,0,0.7,0,1c0,2.5,0,5,0,7.4c0,0.6,0.2,1.4-0.5,1.6c-0.4,0.1-1-0.3-1.5-0.6c-0.6-0.4-1.1-0.8-1.6-1.3
			c-0.7,0.6-1.4,1.1-2.1,1.6c-0.3,0.2-0.8,0.4-1,0.3c-0.3-0.2-0.5-0.7-0.5-1c0-2.8,0-5.6,0-8.5c0-0.1,0-0.3,0-0.5
			c-1.6,0-3.2,0-4.9,0c0,10.1,0,20.1,0,30.3c3.1,0,6.2,0,9.4,0c0-0.6,0-1.1,0-1.7c0-2,0-4,0-6c0-1.3,0.5-1.8,1.8-1.8
			c1.6,0,3.3,0,4.9,0C48.5,46.8,48.8,46.8,49.3,46.8z M18.9,25.4c-0.7,0.5-1.2,1-1.9,1.5c-0.4,0.2-1,0.6-1.3,0.4
			c-0.3-0.2-0.5-0.9-0.5-1.3c0-2.6,0-5.1,0-7.7c0-0.3,0-0.6,0-1c-2.4,0-4.6,0-6.9,0c-0.7,0-0.7,0.4-0.7,0.9c0,5.6,0,11.3,0,16.9
			c0,0.7,0.3,1,1,1c6.9,0,13.9,0,20.8,0c0.7,0,0.9-0.2,0.9-0.9c0-5.7,0-11.3,0-17c0-0.6-0.2-0.9-0.9-0.9c-1.1,0-2.3,0-3.4,0
			c-1.1,0-2.2,0-3.4,0c0,0.4,0,0.6,0,0.8c0,2.7,0,5.4,0,8.1c0,0.4-0.2,1-0.6,1.2c-0.2,0.1-0.8-0.2-1.2-0.4
			C20.2,26.5,19.6,25.9,18.9,25.4z M43.2,51.9c0,1.6,0,3,0,4.5c4.5,0,8.8,0,13.2,0c0-1.5,0-3,0-4.5C52,51.9,47.6,51.9,43.2,51.9z
			 M30.2,11c-4.5,0-8.9,0-13.3,0c0,1.5,0,3,0,4.4c4.5,0,8.9,0,13.3,0C30.2,13.9,30.2,12.5,30.2,11z M42.6,33.8c0-2.8,0-5.2,0-7.7
			c-1.4,0-2.6,0-3.9,0c0,2.5,0,5,0,7.9C40,31.8,41.3,32.2,42.6,33.8z M20.9,17.2c-1.4,0-2.7,0-4,0c0,2.5,0,5,0,7.7
			c1.3-1.7,2.7-1.7,4,0C20.9,22.2,20.9,19.8,20.9,17.2z M20.9,37.8c-1.4,0-2.7,0-4,0c0,2.5,0,5,0,7.7c1.3-1.8,2.6-1.6,4,0
			C20.9,42.7,20.9,40.2,20.9,37.8z M16.9,9.2c4.5,0,8.9,0,13.3,0c0-0.6,0-1.1,0-1.6c-4.5,0-8.9,0-13.3,0C16.9,8.1,16.9,8.6,16.9,9.2
			z M56.4,50.2c0-0.6,0-1.1,0-1.6c-4.5,0-8.9,0-13.3,0c0,0.6,0,1.1,0,1.6C47.6,50.2,52,50.2,56.4,50.2z"/>
		<path class="st0" d="M25.3,50.1c0.7,0,1.5-0.1,2.2,0c0.3,0.1,0.6,0.5,0.9,0.8c-0.3,0.3-0.6,0.7-0.9,0.8c-1.5,0.1-3,0.1-4.6,0
			c-0.3,0-0.6-0.5-0.9-0.8c0.3-0.3,0.6-0.7,1-0.7C23.8,50,24.5,50.1,25.3,50.1z"/>
		<path class="st0" d="M25.2,52.8c0.8,0,1.6-0.1,2.3,0c0.3,0,0.6,0.5,0.9,0.7c-0.3,0.3-0.5,0.8-0.8,0.8c-1.5,0.1-3.1,0.1-4.6,0
			c-0.3,0-0.6-0.5-0.9-0.7c0.3-0.3,0.6-0.7,0.9-0.8C23.7,52.7,24.5,52.8,25.2,52.8C25.2,52.8,25.2,52.8,25.2,52.8z"/>
		<path class="st0" d="M25.2,31.4c-0.7,0-1.5,0.1-2.2,0c-0.3-0.1-0.6-0.5-0.9-0.7c0.3-0.3,0.6-0.8,0.9-0.8c1.5-0.1,3,0,4.6,0
			c0.5,0,1,0.3,0.8,0.9c-0.1,0.3-0.5,0.7-0.8,0.7C26.8,31.5,26,31.4,25.2,31.4z"/>
		<path class="st0" d="M25.2,34.2c-0.7,0-1.4,0-2,0c-0.6,0-1.1-0.2-1.1-0.9c0-0.6,0.5-0.8,1-0.8c1.4,0,2.9,0,4.3,0
			c0.6,0,1.1,0.3,0.9,0.8c-0.1,0.3-0.6,0.7-0.9,0.8C26.7,34.3,26,34.2,25.2,34.2z"/>
		<path class="st0" d="M50.1,54.9c-0.8,0-1.6,0.1-2.3,0c-0.3-0.1-0.6-0.5-0.9-0.8c0.3-0.3,0.6-0.8,0.9-0.8c1.5-0.1,3-0.1,4.6,0
			c0.3,0,0.6,0.5,0.9,0.8c-0.3,0.3-0.6,0.7-1,0.8C51.6,55,50.8,54.9,50.1,54.9z"/>
		<path class="st0" d="M23.7,13.9c-0.7,0-1.4,0.1-2.1,0c-0.4-0.1-0.9-0.4-0.9-0.8c-0.1-0.6,0.4-0.9,0.9-0.9c1.5,0,3-0.1,4.4,0
			c0.3,0,0.6,0.5,0.9,0.8c-0.3,0.3-0.6,0.7-0.9,0.8C25.2,14,24.4,13.9,23.7,13.9z"/>
	</g>
</g>
<g id="Download">
</g>
</svg>
