<?xml version="1.0" encoding="utf-8"?>
<!-- Generator: Adobe Illustrator 22.0.1, SVG Export Plug-In . SVG Version: 6.00 Build 0)  -->
<svg version="1.1" xmlns="http://www.w3.org/2000/svg" xmlns:xlink="http://www.w3.org/1999/xlink" x="0px" y="0px"
	 viewBox="0 0 56 56" style="enable-background:new 0 0 56 56;" xml:space="preserve">
<style type="text/css">
	.st0{fill:#3D9ACD;}
	.st1{fill:#FFFFFF;}
	.st2{fill:#1D92CD;}
	.st3{fill:#F06116;}
	.st4{fill:#6DCFF6;}
	.st5{fill:#46C8F5;}
	.st6{fill:#00B9F2;}
	.st7{fill:#00B3F0;}
	.st8{fill:#00C0F3;}
</style>
<g id="Layer_1">
	<circle class="st7" cx="28" cy="28" r="28"/>
	<g>
		<path class="st1" d="M27.9,11.3c9.3,0,16.7,7.4,16.8,16.5c0.1,9.1-7.4,16.8-16.5,16.9c-9.2,0.1-16.8-7.3-16.9-16.5
			C11.2,19,18.6,11.4,27.9,11.3z M28.2,42.5c8.1-0.1,14.6-6.8,14.4-14.8c-0.1-8.1-6.8-14.6-15-14.4c-8,0.2-14.4,6.7-14.3,14.9
			C13.5,36.2,20.2,42.7,28.2,42.5z"/>
		<path class="st1" d="M27.6,27.6c1.7-1.8,3.4-3.4,5-5.1c0.4-0.4,0.7-0.7,1.1-1.1c0.5-0.5,1.1-0.5,1.5,0c0.4,0.4,0.4,1-0.1,1.5
			c-2.3,2.3-4.5,4.6-6.8,6.9c-0.5,0.5-1.2,0.5-1.7,0c-1.1-1.1-2.1-2.2-3.2-3.4c-0.4-0.5-0.5-1-0.1-1.4c0.4-0.4,1-0.5,1.5,0
			C25.9,25.7,26.7,26.6,27.6,27.6z"/>
		<path class="st1" d="M28.9,15.7c0,0.5-0.5,0.9-1,0.9c-0.5,0-0.9-0.5-0.9-1c0-0.5,0.5-0.9,1-0.9C28.6,14.7,29,15.1,28.9,15.7z"/>
		<path class="st1" d="M16.7,27.9c0,0.5-0.5,1-1,1c-0.5,0-1-0.5-1-1c0-0.5,0.5-1,1-1C16.2,27,16.7,27.4,16.7,27.9z"/>
		<path class="st1" d="M40.3,28.9c-0.5,0-1-0.5-1-1c0-0.5,0.5-1,1-1c0.5,0,1,0.5,1,1C41.3,28.5,40.8,28.9,40.3,28.9z"/>
		<path class="st1" d="M28.9,40.3c0,0.5-0.4,1-1,1c-0.5,0-0.9-0.4-0.9-1c0-0.5,0.4-1,1-1C28.5,39.3,29,39.8,28.9,40.3z"/>
	</g>
</g>
<g id="Download">
</g>
</svg>
